<svg width="21" height="21" viewBox="0 0 21 21" fill="none" xmlns="http://www.w3.org/2000/svg">
<path fill-rule="evenodd" clip-rule="evenodd" d="M2.6829 15.6371C-0.894301 12.0599 -0.894301 6.2601 2.6829 2.6829C6.2601 -0.894301 12.0599 -0.894301 15.6371 2.6829C18.9069 5.95265 19.1879 11.0794 16.4802 14.6683L20.0943 18.2825C21.0371 19.2253 19.6229 20.6395 18.6801 19.6967L15.1092 16.1257C11.5103 19.2061 6.08905 19.0432 2.6829 15.6371ZM14.2229 4.09712C11.4267 1.30096 6.89327 1.30096 4.09712 4.09712C1.30096 6.89327 1.30096 11.4267 4.09712 14.2229C6.89327 17.019 11.4267 17.019 14.2229 14.2229C17.019 11.4267 17.019 6.89327 14.2229 4.09712Z" fill="rgba(153, 156, 162, 0.5)"/>
</svg>
