<svg width="31" height="31" viewBox="0 0 31 31" fill="none" xmlns="http://www.w3.org/2000/svg">
<path d="M2.58331 2.58331H4.83082C6.22582 2.58331 7.32373 3.78456 7.20748 5.16665L6.1354 18.0316C5.95456 20.1371 7.6208 21.9454 9.73914 21.9454H23.4954C25.3554 21.9454 26.9829 20.4212 27.125 18.5742L27.8225 8.88665C27.9775 6.74249 26.35 4.99872 24.1929 4.99872H7.51749" stroke="white" stroke-width="1.9375" stroke-miterlimit="10" stroke-linecap="round" stroke-linejoin="round"/>
<path d="M20.9896 28.4167C21.8813 28.4167 22.6042 27.6938 22.6042 26.8021C22.6042 25.9104 21.8813 25.1875 20.9896 25.1875C20.0979 25.1875 19.375 25.9104 19.375 26.8021C19.375 27.6938 20.0979 28.4167 20.9896 28.4167Z" stroke="white" stroke-width="1.9375" stroke-miterlimit="10" stroke-linecap="round" stroke-linejoin="round"/>
<path d="M10.6563 28.4167C11.548 28.4167 12.2709 27.6938 12.2709 26.8021C12.2709 25.9104 11.548 25.1875 10.6563 25.1875C9.76456 25.1875 9.04169 25.9104 9.04169 26.8021C9.04169 27.6938 9.76456 28.4167 10.6563 28.4167Z" stroke="white" stroke-width="1.9375" stroke-miterlimit="10" stroke-linecap="round" stroke-linejoin="round"/>
<path d="M11.625 10.3333H27.125" stroke="white" stroke-width="1.9375" stroke-miterlimit="10" stroke-linecap="round" stroke-linejoin="round"/>
</svg>
